<?xml version="1.0" standalone="no"?><!DOCTYPE svg PUBLIC "-//W3C//DTD SVG 1.1//EN" "http://www.w3.org/Graphics/SVG/1.1/DTD/svg11.dtd"><svg t="1583226854988" class="icon" viewBox="0 0 1065 1024" version="1.1" xmlns="http://www.w3.org/2000/svg" p-id="2768" xmlns:xlink="http://www.w3.org/1999/xlink" width="208.0078125" height="200"><defs><style type="text/css"></style></defs><path d="M819.501471 1023.993181a86.383976 86.383976 0 0 1-36.522481-9.588749l-249.733645-124.909439L281.423482 1014.276582a76.709994 76.709994 0 0 1-80.673343-5.795866c-23.055615-17.259749-36.52248-48.028979-30.769231-76.709994l51.907096-268.953761-197.783934-184.444918a84.55146 84.55146 0 0 1-21.308331-80.673343C12.427105 368.889836 35.482719 347.751971 66.209334 343.873855L341.086811 294.054975l122.949073-249.733645A78.372043 78.372043 0 0 1 533.245345 0a76.283827 76.283827 0 0 1 69.166844 44.19348L725.361262 294.054975l274.70701 48.02898a74.152994 74.152994 0 0 1 61.495845 53.824845 78.329427 78.329427 0 0 1-19.220115 80.673344l-197.869167 186.362667 49.946729 268.953761a77.818027 77.818027 0 0 1-30.726614 76.709994 68.399744 68.399744 0 0 1-44.193479 15.384615z" fill="#F5B303" p-id="2769"></path></svg>